<?xml version="1.0" encoding="utf-8"?><!DOCTYPE svg PUBLIC "-//W3C//DTD SVG 1.1//EN" "http://www.w3.org/Graphics/SVG/1.1/DTD/svg11.dtd"><svg version="1.1" xmlns="http://www.w3.org/2000/svg" width="160" height="160" viewBox="0 0 160 160">
<g>
	<g><circle cx="80" cy="80" r="80" fill="#FFFFFF" /></g>
	<g>
		<g id="ringback"><path fill="#FFFFFE" d="M80,0C35.817,0,0,35.817,0,80c0,44.184,35.817,80,80,80c44.184,0,80-35.816,80-80C160,35.817,124.184,0,80,0z M80,155.5c-41.697,0-75.5-33.804-75.5-75.5C4.5,38.303,38.303,4.5,80,4.5c41.696,0,75.5,33.803,75.5,75.5C155.5,121.696,121.696,155.5,80,155.5z"/></g>

		<g id="ringfore">
			<path fill="#FFFFFE" d="M39.5,16.2v-5.3c-5.7,3.4-11.1,7.6-16,12.5c-5,5-9.1,10.3-12.5,16h5.3c2.9-4.5,6.3-8.8,10.3-12.8S34.9,19.2,39.5,16.2z"/>
			<path fill="#FFFFFE" d="M15.6,40.4h-5.2c-2.8,5-5.1,10.3-6.7,15.8l3.2,5.5C8.7,54.1,11.6,47,15.6,40.4z"/>
			<path fill="#FFFFFE" d="M97.4,2C91.9,0.8,86.1,0.1,80,0C65.2,0.3,52.1,3.8,40.5,10.4v5.2C52,8.5,65.1,4.8,80,4.5c7.3,0.1,14.1,1.1,20.5,2.9L97.4,2z"/>
			<path fill="#FFFFFE" d="M129.3,22.8l2.3-3.9c-9.5-8.2-20.5-13.7-32.8-16.6l3.1,5.5C112.1,10.7,121.3,15.7,129.3,22.8z"/>
			<path fill="#FFFFFE" d="M132.3,19.5l-2.2,3.9c1.1,1,2.2,2.1,3.3,3.2c9,9,15.3,19.4,18.8,31.4l5.5,3.1c-3.4-14.5-10.5-27-21.1-37.7C135.2,22.1,133.8,20.8,132.3,19.5z"/>
			<path fill="#FFFFFE" d="M158,62.4l-5.4-3.1c1.8,6.5,2.8,13.4,2.9,20.7c-0.1,6-0.8,11.7-2,17.1l3.2,5.6c2-7.1,3.1-14.7,3.3-22.7C159.9,73.8,159.2,68,158,62.4z"/>
			<path fill="#FFFFFE" d="M156.3,104l-3.1-5.5c-3.4,13.4-9.9,25-19.8,34.9c-4,4-8.3,7.4-12.9,10.4v5.2c5.8-3.4,11.1-7.5,16.1-12.5C146,127.2,152.6,116.3,156.3,104z"/>
			<path fill="#FFFFFE" d="M119.5,149.6v-5.2c-11.4,7-24.6,10.7-39.5,11.1c-7.3-0.2-14.2-1.2-20.7-3l3.1,5.4c5.6,1.2,11.5,1.9,17.6,2.1C94.8,159.6,108,156.2,119.5,149.6z"/>
			<path fill="#FFFFFE" d="M6.5,63.1l-3.2-5.6C1.3,64.5,0.2,72,0,80c0.4,14.7,3.8,27.9,10.4,39.4h5.2C8.6,108,4.9,94.9,4.5,80C4.7,74.1,5.3,68.5,6.5,63.1z"/>
			<path fill="#FFFFFE" d="M16.2,120.4H11c3.3,5.8,7.5,11.2,12.5,16.1c4.9,5,10.2,9.1,16,12.5l-0.1-5.3c-4.5-2.9-8.8-6.3-12.8-10.3C22.6,129.3,19.1,125,16.2,120.4z"/>
			<path fill="#FFFFFE" d="M40.4,144.4l0.1,5.2c6.3,3.6,13.2,6.3,20.6,8l-3.2-5.5C51.7,150.3,45.9,147.7,40.4,144.4z"/>
		</g>

		<g id="centersign">
			<g id="signstar">
				<polygon fill="#FFFFFE" points="79.5,58.5 84.633,73.722 100.563,73.722 87.818,83.277 92.42,98.5 79.5,89.475 66.58,98.5 71.182,83.277 58.438,73.722 74.367,73.722"/>
			</g>
			<g id="signparty" display="none"><path fill="#FFFFFE" d="M80.448,58.475c10.11,3.89,16.197,16.188,10.938,26.069L78.592,71.51l4.953-4.941l-3.097-3.153c-1.651,1.683-4.333,1.999-6.19,1.261l-9.699,9.985l5.572,5.571l3.61-3.784l12.792,13.035c-6.292,3.574-14.958,2.418-21.354-4.311l-2.992,3.156c0.826,1.258,1.65,2.414,2.579,3.466c0,0.104-0.309,0.316-0.309,0.316c-0.207,0-0.413-0.105-0.517-0.105c-1.65,0-2.993,1.47-2.993,3.153c0,1.682,1.342,3.047,2.993,3.047s3.095-1.365,3.095-3.047c0-0.209-0.103-0.421-0.103-0.525l0.412-0.525c7.429,5.045,15.477,5.677,24.142,0.423l3.508,3.675l4.953-4.938l-3.612-3.682C106.654,73.717,92.831,58.054,80.448,58.475"/></g>
		</g>
	</g>
</g>
</svg>